<!DOCTYPE svg PUBLIC "-//W3C//DTD SVG 20010904//EN" "http://www.w3.org/TR/2001/REC-SVG-20010904/DTD/svg10.dtd">
<svg version="1.0" xmlns="http://www.w3.org/2000/svg" width="155px" height="75px" viewBox="0 0 1550 750" preserveAspectRatio="xMidYMid meet">
<g id="layer101" fill="#171717" stroke="none">
 <path d="M0 375 l0 -375 775 0 775 0 0 375 0 375 -775 0 -775 0 0 -375z"/>
 </g>
<g id="layer102" fill="#2b2b2b" stroke="none">
 <path d="M0 375 l0 -375 775 0 775 0 0 375 0 375 -775 0 -775 0 0 -375z m1433 192 c37 -82 37 -82 37 -214 l0 -133 -472 2 -473 3 468 2 467 3 0 130 c0 129 0 130 -37 204 l-37 75 -81 4 -80 3 85 2 85 1 38 -82z m-943 -47 c25 -23 36 -37 25 -32 -11 6 -49 41 -85 79 -62 64 -40 47 60 -47z m737 88 c-3 -8 -6 -5 -6 6 -1 11 2 17 5 13 3 -3 4 -12 1 -19z m-10 -40 c-3 -8 -6 -5 -6 6 -1 11 2 17 5 13 3 -3 4 -12 1 -19z m70 -150 c-2 -29 -3 -6 -3 52 0 58 1 81 3 53 2 -29 2 -77 0 -105z m70 0 c-2 -29 -3 -6 -3 52 0 58 1 81 3 53 2 -29 2 -77 0 -105z m-150 100 c-3 -8 -6 -5 -6 6 -1 11 2 17 5 13 3 -3 4 -12 1 -19z m-899 -25 c-27 -4 -27 -4 -31 -101 l-3 -97 -2 103 -2 102 33 -1 c29 -2 30 -2 5 -6z m39 -60 c-2 -16 -4 -5 -4 22 0 28 2 40 4 28 2 -13 2 -35 0 -50z m200 -110 c-2 -21 -4 -4 -4 37 0 41 2 58 4 38 2 -21 2 -55 0 -75z m30 100 c-4 -3 -10 -3 -14 0 -3 4 0 7 7 7 7 0 10 -3 7 -7z m70 -13 c3 -10 2 -11 -4 -4 -4 7 -17 14 -28 17 -16 5 -15 5 4 4 14 -1 26 -9 28 -17z m63 12 c0 -5 -7 -9 -15 -9 -8 0 -12 4 -9 9 3 4 9 8 15 8 5 0 9 -4 9 -8z m64 -8 c3 -8 2 -12 -4 -9 -6 3 -10 10 -10 16 0 14 7 11 14 -7z m194 9 c-10 -2 -26 -2 -35 0 -10 3 -2 5 17 5 19 0 27 -2 18 -5z m111 -20 l-2 -28 -6 25 c-4 17 -8 1 -12 -45 l-5 -70 -2 73 c-2 58 1 72 13 72 10 0 15 -9 14 -27z m89 -45 l-2 -73 -3 67 c-3 53 -7 68 -21 71 -12 3 -11 5 6 6 21 1 22 -2 20 -71z m-149 28 c-3 -3 -11 5 -18 17 -13 21 -12 21 5 5 10 -10 16 -20 13 -22z m-192 7 c-4 -3 -7 0 -7 7 0 7 3 10 7 7 3 -4 3 -10 0 -14z m-420 0 c-4 -3 -10 -3 -14 0 -3 4 0 7 7 7 7 0 10 -3 7 -7z m310 -10 c-4 -3 -7 0 -7 7 0 7 3 10 7 7 3 -4 3 -10 0 -14z m-272 -3 c3 -6 -1 -7 -9 -4 -18 7 -21 14 -7 14 6 0 13 -4 16 -10z m442 -7 c-4 -3 -7 0 -7 7 0 7 3 10 7 7 3 -4 3 -10 0 -14z m-254 -10 c-7 -2 -21 -2 -30 0 -10 3 -4 5 12 5 17 0 24 -2 18 -5z m74 -10 c-4 -3 -7 0 -7 7 0 7 3 10 7 7 3 -4 3 -10 0 -14z m410 11 c-3 -3 -12 -4 -19 -1 -8 3 -5 6 6 6 11 1 17 -2 13 -5z m-642 -14 c3 -5 4 -10 1 -10 -3 0 -8 5 -11 10 -3 6 -4 10 -1 10 3 0 8 -4 11 -10z m773 3 c-22 -3 -28 -10 -31 -36 -4 -31 -4 -31 -5 6 -2 36 -1 37 31 36 29 -2 29 -2 5 -6z m165 0 c-7 -2 -21 -2 -30 0 -10 3 -4 5 12 5 17 0 24 -2 18 -5z m-618 -13 c3 -5 4 -10 1 -10 -3 0 -8 5 -11 10 -3 6 -4 10 -1 10 3 0 8 -4 11 -10z m92 -7 c-4 -3 -7 0 -7 7 0 7 3 10 7 7 3 -4 3 -10 0 -14z m-60 -10 c-4 -3 -7 0 -7 7 0 7 3 10 7 7 3 -4 3 -10 0 -14z m163 13 c0 -3 -5 -8 -12 -12 -7 -4 -8 -3 -4 4 7 12 16 16 16 8z m-503 -48 c-3 -7 -5 -2 -5 12 0 14 2 19 5 13 2 -7 2 -19 0 -25z m246 17 c-3 -9 -8 -14 -10 -11 -3 3 -2 9 2 15 9 16 15 13 8 -4z m85 -10 c-3 -3 -9 2 -12 12 -6 14 -5 15 5 6 7 -7 10 -15 7 -18z m93 8 c13 -16 12 -17 -3 -4 -17 13 -22 21 -14 21 2 0 10 -8 17 -17z m46 10 c-4 -3 -10 -3 -14 0 -3 4 0 7 7 7 7 0 10 -3 7 -7z m-320 -20 c-4 -3 -7 0 -7 7 0 7 3 10 7 7 3 -4 3 -10 0 -14z m-403 -8 c-4 -8 -8 -15 -10 -15 -2 0 -4 7 -4 15 0 8 4 15 10 15 5 0 7 -7 4 -15z m143 -31 c-3 -3 -12 -4 -19 -1 -8 3 -5 6 6 6 11 1 17 -2 13 -5z m103 2 c0 -2 -8 -10 -17 -17 -16 -13 -17 -12 -4 4 13 16 21 21 21 13z m-225 -34 c-3 -3 -11 0 -18 7 -9 10 -8 11 6 5 10 -3 15 -9 12 -12z m48 -9 c-7 -2 -19 -2 -25 0 -7 3 -2 5 12 5 14 0 19 -2 13 -5z m104 1 c-3 -3 -12 -4 -19 -1 -8 3 -5 6 6 6 11 1 17 -2 13 -5z m113 3 c0 -1 -37 -38 -82 -82 l-83 -80 80 83 c74 76 85 87 85 79z"/>
 </g>
<g id="layer103" fill="#4e4e4e" stroke="none">
 <path d="M0 375 l0 -375 775 0 775 0 0 375 0 375 -775 0 -775 0 0 -375z m440 200 l85 -85 334 2 335 3 15 75 16 75 85 3 85 2 38 -82 c37 -83 37 -84 37 -215 l0 -133 -473 0 -472 0 -85 -85 c-47 -47 -89 -85 -94 -85 -5 0 -6 3 -2 7 4 4 -58 73 -136 153 l-143 145 145 -143 145 -142 80 80 80 80 472 0 473 0 0 125 c0 123 -1 127 -36 205 l-37 80 -77 0 -77 0 -12 -62 c-7 -35 -14 -71 -17 -80 -5 -17 -30 -18 -347 -18 l-342 0 -85 85 -85 85 -155 -152 -155 -153 155 158 c85 86 157 157 160 157 3 0 44 -38 90 -85z m155 15 c-17 -19 -17 -21 1 -42 l18 -23 -24 22 c-23 22 -23 23 -5 43 10 11 20 20 23 20 3 0 -3 -9 -13 -20z m83 13 c-10 -2 -26 -2 -35 0 -10 3 -2 5 17 5 19 0 27 -2 18 -5z m327 -3 c3 -5 4 -10 1 -10 -3 0 -8 5 -11 10 -3 6 -4 10 -1 10 3 0 8 -4 11 -10z m-245 -60 c24 0 30 5 34 30 6 30 6 30 4 -2 -3 -30 -6 -33 -38 -33 -32 0 -35 3 -37 33 -3 32 -3 32 3 2 4 -25 10 -30 34 -30z m337 33 c-4 -3 -7 0 -7 7 0 7 3 10 7 7 3 -4 3 -10 0 -14z m-400 -10 c-4 -3 -7 0 -7 7 0 7 3 10 7 7 3 -4 3 -10 0 -14z m300 -15 c-3 -7 -5 -2 -5 12 0 14 2 19 5 13 2 -7 2 -19 0 -25z m73 -10 c0 -13 -5 -9 -31 19 l-24 26 27 -19 c15 -10 28 -22 28 -26z m97 8 c-5 -11 -18 -15 -44 -14 l-38 1 38 4 c34 4 38 7 34 25 -4 15 -3 18 5 10 6 -6 8 -18 5 -26z m193 -78 l0 -108 30 0 c28 0 30 -3 30 -35 l0 -35 -105 0 -105 0 0 35 c0 33 2 35 35 35 l35 0 0 108 0 107 40 0 40 0 0 -107z m-682 65 c-10 -2 -26 -2 -35 0 -10 3 -2 5 17 5 19 0 27 -2 18 -5z m190 0 c-10 -2 -26 -2 -35 0 -10 3 -2 5 17 5 19 0 27 -2 18 -5z m100 0 c-10 -2 -28 -2 -40 0 -13 2 -5 4 17 4 22 1 32 -1 23 -4z m-616 -80 c3 -46 4 -48 38 -54 45 -7 77 -24 90 -49 17 -32 11 -77 -14 -107 -22 -26 -31 -28 -108 -31 -110 -5 -138 6 -138 54 0 34 2 36 25 30 l25 -6 0 105 0 105 39 0 40 0 3 -47z m302 -38 c4 -12 -3 -15 -34 -15 -29 0 -40 -4 -40 -15 0 -10 10 -15 30 -15 20 0 30 -5 30 -15 0 -10 -10 -15 -31 -15 -37 0 -35 -25 2 -26 13 0 25 -3 27 -7 7 -21 -3 -27 -48 -27 l-50 0 0 75 0 75 54 0 c39 0 55 -4 60 -15z m62 -10 c8 -32 20 -32 37 2 l15 27 17 -34 18 -34 16 32 c10 20 20 29 29 24 9 -6 7 -22 -9 -70 -11 -34 -24 -60 -29 -57 -4 2 -13 18 -20 35 -7 16 -16 30 -19 30 -4 0 -15 -17 -25 -37 l-19 -38 -23 63 c-14 35 -22 68 -19 73 11 17 25 9 31 -16z m294 -2 c26 -33 21 -79 -11 -105 -28 -24 -60 -23 -93 3 -35 27 -37 90 -4 113 36 25 83 20 108 -11z m70 -3 c0 -25 4 -30 25 -30 21 0 25 5 25 30 0 23 4 30 20 30 18 0 20 -7 20 -75 0 -68 -2 -75 -20 -75 -16 0 -20 7 -20 30 0 23 -5 30 -19 30 -14 0 -21 -8 -23 -27 -2 -17 -10 -29 -20 -31 -16 -3 -18 6 -18 72 0 61 3 76 15 76 10 0 15 -10 15 -30z"/>
 <path d="M357 343 c-13 -12 -8 -83 6 -83 23 0 49 26 46 44 -5 21 -42 50 -52 39z"/>
 <path d="M927 383 c-22 -21 0 -63 33 -63 18 0 32 40 19 56 -12 15 -41 19 -52 7z"/>
 </g>
<g id="layer104" fill="#707070" stroke="none">
 <path d="M0 375 l0 -375 775 0 775 0 0 375 0 375 -775 0 -775 0 0 -375z m440 200 l85 -85 331 0 c256 0 333 3 336 13 3 6 11 42 18 80 l14 67 85 0 86 0 38 -83 c37 -82 37 -83 37 -214 l0 -133 -472 0 -473 0 -90 -90 -90 -90 -154 154 c-144 144 -152 154 -140 175 8 11 18 21 23 21 5 0 2 -8 -8 -19 -15 -17 -15 -19 1 -32 15 -11 16 -11 6 1 -11 11 -8 20 15 44 15 17 19 24 10 17 -10 -7 -18 -11 -18 -9 0 6 264 268 270 268 3 0 43 -38 90 -85z m155 15 c-17 -19 -17 -21 0 -40 23 -26 11 -26 -17 0 l-21 19 24 20 c31 26 37 26 14 1z m105 12 c0 -4 -16 -6 -35 -4 -19 2 -35 6 -35 8 0 2 16 4 35 4 19 0 35 -4 35 -8z m60 -12 c16 0 31 6 34 13 3 6 4 -6 3 -28 -2 -39 -3 -40 -37 -40 -34 0 -35 1 -37 40 -1 22 0 34 3 28 3 -7 18 -13 34 -13z m208 -53 c9 -3 -3 -5 -28 -4 -25 0 -35 2 -22 4 18 4 22 12 24 41 l1 37 4 -37 c3 -24 10 -38 21 -41z m60 41 l27 -32 6 35 c6 33 6 33 8 -10 l1 -45 -34 33 -35 34 -4 -34 c-3 -31 -4 -30 -5 9 -1 23 1 42 4 42 3 0 17 -14 32 -32z m97 12 c27 0 49 -24 41 -45 -3 -9 -18 -15 -41 -15 -35 0 -35 0 -34 43 0 23 3 36 6 30 2 -7 15 -13 28 -13z m-236 -14 c20 -24 2 -46 -38 -45 l-36 2 35 6 c46 8 48 36 3 36 -18 0 -33 3 -33 7 0 14 57 9 69 -6z m-342 -13 c-4 -3 -7 0 -7 7 0 7 3 10 7 7 3 -4 3 -10 0 -14z m90 0 c-4 -3 -7 0 -7 7 0 7 3 10 7 7 3 -4 3 -10 0 -14z m63 7 c0 -5 -5 -10 -11 -10 -5 0 -7 5 -4 10 3 6 8 10 11 10 2 0 4 -4 4 -10z m0 -30 c0 -5 -17 -9 -37 -9 l-38 2 35 7 c19 4 36 8 38 9 1 0 2 -3 2 -9z"/>
 <path d="M225 530 c-66 -66 -117 -120 -115 -120 3 0 59 54 125 120 66 66 117 120 115 120 -3 0 -59 -54 -125 -120z"/>
 <path d="M1235 628 c-3 -7 -11 -42 -18 -78 l-13 -65 -344 -3 -344 -2 -78 77 -78 78 -140 -140 c-94 -94 -138 -145 -136 -158 1 -10 61 -76 132 -148 l129 -129 85 85 85 85 473 0 472 0 -1 128 c0 126 -1 128 -37 202 l-37 75 -73 3 c-52 2 -74 -1 -77 -10z m125 -158 l0 -110 36 0 c35 0 35 -1 32 -37 l-3 -38 -109 0 -109 0 -1 37 c-1 35 1 37 34 40 l35 3 3 108 3 107 39 0 40 0 0 -110z m-1010 -14 c0 -44 0 -44 40 -51 57 -10 100 -53 100 -100 0 -49 -13 -69 -52 -86 -40 -17 -165 -17 -194 -1 -15 8 -23 23 -26 51 -3 39 -3 39 24 34 l28 -5 0 101 0 101 40 0 40 0 0 -44z m666 -54 c46 -60 -27 -144 -101 -116 -23 9 -46 60 -39 88 15 63 101 80 140 28z m-366 24 c0 -2 3 -11 6 -20 5 -13 -2 -16 -35 -16 -23 0 -41 -4 -41 -10 0 -5 16 -10 35 -10 24 0 35 -5 35 -15 0 -10 -11 -15 -35 -15 -19 0 -35 -4 -35 -10 0 -5 16 -10 35 -10 28 0 35 -4 35 -20 0 -18 -7 -20 -55 -20 l-55 0 0 75 0 75 55 0 c30 0 55 -2 55 -4z m66 -21 c8 -32 15 -32 36 2 l16 27 13 -27 c15 -33 23 -34 37 -2 6 14 16 25 22 25 21 0 20 -27 -3 -88 l-23 -62 -24 41 -23 42 -21 -41 -21 -42 -23 63 c-12 34 -22 68 -22 75 0 23 30 12 36 -13z m374 -5 c0 -23 4 -30 20 -30 16 0 20 7 20 30 0 23 4 30 20 30 18 0 20 -7 20 -75 0 -68 -2 -75 -20 -75 -15 0 -20 7 -20 25 0 18 -5 25 -20 25 -15 0 -20 -7 -20 -25 0 -18 -5 -25 -19 -25 -17 0 -20 9 -23 75 -3 72 -2 75 20 75 18 0 22 -6 22 -30z m-865 -200 c71 -71 127 -130 125 -130 -3 0 -64 58 -135 130 -71 72 -127 130 -125 130 3 0 64 -58 135 -130z"/>
 <path d="M350 301 c0 -46 7 -50 41 -22 20 16 22 23 13 38 -6 10 -21 19 -33 21 -18 3 -21 -1 -21 -37z"/>
 <path d="M933 383 c-17 -6 -16 -38 1 -52 22 -18 48 -2 44 28 -3 25 -20 35 -45 24z"/>
 <path d="M730 560 c0 -16 7 -20 30 -20 23 0 30 4 30 20 0 16 -7 20 -30 20 -23 0 -30 -4 -30 -20z"/>
 <path d="M1100 561 c0 -17 6 -21 31 -21 24 0 30 4 27 18 -2 10 -14 18 -31 20 -22 3 -27 -1 -27 -17z"/>
 </g>
<g id="layer105" fill="#909090" stroke="none">
 <path d="M0 375 l0 -375 775 0 775 0 0 375 0 375 -775 0 -775 0 0 -375z m857 115 c307 0 332 1 337 18 3 9 10 45 17 80 l12 62 89 0 89 0 11 -31 c6 -17 22 -52 36 -77 22 -42 26 -61 30 -184 l4 -138 -479 0 -478 0 -90 -90 -90 -90 -152 152 c-84 84 -153 157 -153 163 0 5 69 78 152 162 l153 153 90 -90 90 -90 332 0z m-310 105 c-9 -23 9 -26 28 -5 10 11 23 20 28 20 6 0 2 -9 -8 -20 -17 -19 -17 -21 0 -40 10 -11 13 -20 8 -20 -6 0 -16 7 -23 15 -7 8 -16 15 -21 15 -5 0 -9 -7 -9 -15 0 -8 -4 -15 -10 -15 -5 0 -10 18 -10 40 0 23 5 40 11 40 6 0 9 -7 6 -15z m154 8 c8 -62 5 -68 -38 -71 l-43 -3 0 40 0 41 40 0 c22 0 40 -3 41 -7z m59 -13 c16 0 31 6 34 13 3 6 4 -6 3 -28 -2 -39 -3 -40 -37 -40 -34 0 -35 1 -37 40 -1 22 0 34 3 28 3 -7 18 -13 34 -13z m100 -2 c14 -1 29 -13 35 -25 5 -13 18 -23 27 -23 14 0 18 9 20 38 l1 37 4 -37 c3 -24 10 -38 21 -41 9 -2 -22 -5 -70 -5 l-88 -1 0 41 c0 31 3 38 13 30 6 -5 23 -12 37 -14z m172 -10 l23 -33 6 35 c6 34 6 34 8 -9 l1 -45 -34 33 -35 34 -4 -34 c-3 -31 -4 -30 -5 9 -2 50 9 53 40 10z m91 12 c32 0 49 -15 45 -36 -2 -14 -13 -20 -41 -22 l-37 -3 1 43 c0 24 3 37 6 31 2 -7 14 -13 26 -13z"/>
 <path d="M197 502 l-147 -147 151 -150 c84 -83 149 -144 145 -137 -4 7 -2 12 6 12 7 0 47 34 88 75 l74 75 473 0 473 0 0 125 0 125 -40 81 -41 80 -71 -3 -71 -3 -14 -60 c-7 -33 -15 -70 -18 -83 l-6 -23 -339 3 -340 3 -80 80 -81 80 -144 -146 c-80 -80 -148 -143 -150 -140 -3 3 61 72 142 153 81 81 145 148 143 148 -3 0 -72 -66 -153 -148z m1165 -29 l3 -108 30 0 c28 -1 30 -3 33 -43 l3 -42 -116 0 -116 0 3 42 c3 41 4 42 38 43 l35 0 3 108 3 107 39 0 39 0 3 -107z m-1002 -17 c0 -42 1 -44 37 -51 53 -10 93 -54 93 -103 0 -24 -7 -48 -17 -60 -35 -39 -127 -53 -206 -31 -40 11 -42 13 -51 67 -5 30 -4 32 19 26 l25 -6 0 101 0 101 50 0 50 0 0 -44z m386 -53 c18 34 28 34 43 0 l13 -28 14 28 c15 28 28 34 39 17 8 -13 -34 -142 -45 -135 -4 2 -13 18 -20 35 -16 39 -26 38 -46 -7 l-16 -38 -28 70 c-25 64 -26 71 -11 83 14 11 18 9 29 -20 l14 -33 14 28z m243 22 c71 -36 45 -145 -35 -145 -41 0 -72 26 -80 67 -5 27 -1 37 24 63 34 34 50 37 91 15z m-339 1 c0 -2 3 -11 6 -20 5 -13 -2 -16 -35 -16 -23 0 -41 -4 -41 -10 0 -5 16 -10 35 -10 24 0 35 -5 35 -15 0 -10 -11 -15 -35 -15 -19 0 -35 -4 -35 -10 0 -5 16 -10 35 -10 28 0 35 -4 35 -20 0 -18 -7 -20 -60 -20 l-60 0 0 75 0 75 60 0 c33 0 60 -2 60 -4z m440 -27 c0 -24 4 -30 18 -27 10 2 18 14 20 31 2 19 9 27 23 27 17 0 19 -8 19 -75 0 -68 -2 -75 -20 -75 -15 0 -20 7 -20 25 0 18 -5 25 -20 25 -15 0 -20 -7 -20 -25 0 -20 -5 -25 -25 -25 -24 0 -25 2 -25 75 0 73 1 75 25 75 21 0 25 -5 25 -31z m-875 -189 c71 -71 127 -130 125 -130 -3 0 -64 58 -135 130 -71 72 -127 130 -125 130 3 0 64 -58 135 -130z"/>
 <path d="M350 306 c0 -42 10 -50 38 -30 27 19 28 40 3 54 -32 17 -41 12 -41 -24z"/>
 <path d="M930 375 c-18 -21 -5 -47 22 -43 26 3 37 36 16 49 -18 12 -24 11 -38 -6z"/>
 <path d="M637 594 c-4 -4 -4 -10 -2 -14 6 -10 55 0 55 11 0 10 -43 12 -53 3z"/>
 <path d="M635 550 c3 -5 17 -10 31 -10 13 0 24 5 24 10 0 6 -14 10 -31 10 -17 0 -28 -4 -24 -10z"/>
 <path d="M730 561 c0 -17 6 -21 31 -21 24 0 30 4 27 18 -2 10 -14 18 -31 20 -22 3 -27 -1 -27 -17z"/>
 <path d="M825 570 c-10 -16 4 -30 29 -30 29 0 39 10 25 27 -13 15 -45 17 -54 3z"/>
 <path d="M1100 561 c0 -17 6 -21 31 -21 24 0 30 4 27 18 -2 10 -14 18 -31 20 -22 3 -27 -1 -27 -17z"/>
 </g>
<g id="layer106" fill="#b1b1b1" stroke="none">
 <path d="M0 375 l0 -375 775 0 775 0 0 375 0 375 -775 0 -775 0 0 -375z m857 115 l331 0 5 23 c3 12 11 48 17 80 l11 57 88 0 89 0 41 -86 41 -86 0 -129 0 -129 -472 0 -473 0 -92 -92 -93 -93 -160 160 -160 160 157 157 158 158 90 -90 90 -90 332 0z m-307 105 c0 -8 4 -15 9 -15 5 0 14 7 21 15 7 8 17 15 23 15 5 0 2 -9 -8 -20 -17 -19 -17 -21 0 -40 10 -11 13 -20 8 -20 -6 0 -16 7 -23 15 -7 8 -16 15 -21 15 -5 0 -9 -7 -9 -15 0 -8 -4 -15 -10 -15 -5 0 -10 18 -10 40 0 22 5 40 10 40 6 0 10 -7 10 -15z m155 -25 c0 -34 -1 -35 -42 -38 l-43 -3 0 41 0 41 43 -3 c41 -3 42 -4 42 -38z m55 20 c16 0 31 6 33 13 3 6 6 -7 6 -30 l1 -43 -40 0 -40 0 1 43 c0 23 3 36 6 30 2 -7 17 -13 33 -13z m70 11 c0 -6 15 -11 33 -13 25 -2 33 -8 35 -26 5 -36 36 -23 43 18 l6 35 2 -37 c1 -31 5 -38 21 -38 16 0 20 7 20 35 0 43 12 44 42 4 l23 -31 6 34 c6 32 6 32 8 -9 0 -24 -1 -43 -4 -43 -3 0 -19 15 -35 33 l-29 32 -1 -32 0 -32 -95 0 -95 0 0 40 c0 21 5 39 10 39 6 0 10 -4 10 -9z m305 -13 c24 -2 30 -8 30 -28 0 -22 -5 -25 -37 -28 l-38 -3 0 43 c0 24 4 38 8 31 4 -6 21 -13 37 -15z"/>
 <path d="M195 500 c-82 -82 -147 -150 -145 -150 3 0 73 68 155 150 82 83 147 150 145 150 -3 0 -73 -67 -155 -150z"/>
 <path d="M217 492 l-137 -137 140 -140 140 -140 78 78 77 77 470 2 470 3 3 117 c3 117 2 118 -34 198 l-37 80 -77 0 -77 0 -14 -77 -14 -78 -340 -3 -339 -2 -46 42 c-25 24 -63 60 -85 80 l-41 38 -137 -138z m1143 -17 l0 -105 35 0 c35 0 35 0 35 -45 l0 -45 -116 0 -115 0 3 43 c3 39 5 42 36 45 l32 3 0 105 0 104 45 0 45 0 0 -105z m-1000 -21 c0 -40 2 -44 24 -44 31 0 88 -40 104 -73 17 -36 4 -85 -31 -111 -33 -25 -133 -33 -195 -17 -33 9 -42 16 -42 34 0 12 -3 33 -7 46 -6 22 -4 23 20 17 l27 -6 0 98 c0 54 2 101 4 103 3 2 25 3 50 1 l46 -4 0 -44z m391 -43 l17 33 18 -35 18 -34 10 28 c9 25 34 36 49 21 5 -6 -37 -131 -48 -142 -2 -3 -12 12 -21 32 -10 20 -21 36 -24 36 -3 0 -14 -16 -24 -36 -9 -20 -19 -35 -21 -33 -3 4 -55 139 -55 144 0 2 8 5 18 7 11 3 22 -6 32 -24 l14 -29 17 32z m254 4 c53 -52 18 -135 -56 -135 -29 0 -42 6 -58 26 -63 80 43 181 114 109z m83 -8 c5 -41 42 -38 42 3 0 23 4 30 20 30 18 0 20 -7 20 -80 0 -73 -2 -80 -20 -80 -15 0 -20 7 -20 25 0 18 -5 25 -20 25 -15 0 -20 -7 -20 -25 0 -20 -5 -25 -25 -25 -24 0 -25 2 -25 73 0 41 3 76 6 79 14 15 39 -1 42 -25z m-430 1 c3 -15 -4 -18 -38 -18 -26 0 -39 -4 -35 -11 4 -5 19 -9 33 -7 19 2 28 -2 30 -14 3 -15 -4 -18 -32 -18 -20 0 -36 -4 -36 -10 0 -5 16 -10 35 -10 28 0 35 -4 35 -20 0 -18 -7 -20 -60 -20 l-60 0 0 75 0 76 62 -3 c50 -2 63 -6 66 -20z"/>
 <path d="M350 305 c0 -27 4 -35 18 -35 18 0 42 18 42 31 0 13 -31 39 -46 39 -9 0 -14 -11 -14 -35z"/>
 <path d="M930 375 c-17 -20 -5 -45 20 -45 11 0 23 7 26 15 6 15 -11 45 -26 45 -4 0 -13 -7 -20 -15z"/>
 <path d="M640 590 c0 -5 11 -10 25 -10 14 0 25 5 25 10 0 6 -11 10 -25 10 -14 0 -25 -4 -25 -10z"/>
 <path d="M640 550 c0 -5 11 -10 25 -10 14 0 25 5 25 10 0 6 -11 10 -25 10 -14 0 -25 -4 -25 -10z"/>
 <path d="M730 554 c0 -11 8 -14 27 -12 39 4 42 28 4 28 -21 0 -31 -5 -31 -16z"/>
 <path d="M830 555 c0 -9 9 -15 25 -15 16 0 25 6 25 15 0 9 -9 15 -25 15 -16 0 -25 -6 -25 -15z"/>
 <path d="M1100 554 c0 -11 8 -14 27 -12 39 4 42 28 4 28 -21 0 -31 -5 -31 -16z"/>
 </g>
<g id="layer107" fill="#cdcdcd" stroke="none">
 <path d="M0 375 l0 -375 775 0 775 0 0 375 0 375 -775 0 -775 0 0 -375z m445 205 l90 -90 326 0 326 0 17 80 17 80 94 0 c71 0 95 -3 95 -13 0 -7 16 -46 35 -86 l36 -74 -3 -131 -3 -131 -475 -3 -475 -2 -87 -87 -88 -88 -160 160 -160 160 157 157 c87 87 160 158 163 158 3 0 46 -40 95 -90z m105 15 c0 -8 4 -15 9 -15 5 0 14 7 21 15 7 8 17 15 23 15 5 0 2 -9 -8 -20 -17 -19 -17 -21 0 -40 10 -11 16 -22 13 -25 -3 -3 -13 4 -23 15 -22 24 -35 26 -35 5 0 -8 -4 -15 -10 -15 -5 0 -10 18 -10 40 0 22 5 40 10 40 6 0 10 -7 10 -15z m155 -25 c0 -28 -5 -36 -26 -44 -43 -15 -59 -2 -59 44 l0 41 43 -3 c41 -3 42 -4 42 -38z m55 20 c16 0 31 6 33 13 3 6 6 -7 6 -30 1 -45 -18 -61 -59 -48 -16 5 -20 15 -19 48 0 23 3 36 6 30 2 -7 17 -13 33 -13z m70 11 c0 -6 15 -11 33 -13 24 -2 33 -8 35 -25 6 -38 32 -28 32 12 0 19 5 35 10 35 6 0 10 -16 10 -35 0 -28 4 -35 20 -35 16 0 20 7 20 35 0 42 5 43 42 8 l28 -27 0 27 c0 20 5 27 20 27 11 0 20 -4 20 -9 0 -6 15 -11 33 -13 26 -2 33 -8 35 -30 2 -19 -2 -28 -18 -33 -37 -12 -99 5 -117 31 -20 31 -31 31 -25 -1 3 -16 0 -25 -9 -26 -53 -6 -90 -5 -94 2 -3 4 -18 2 -34 -4 -44 -16 -61 -4 -61 43 0 22 5 40 10 40 6 0 10 -4 10 -9z"/>
 <path d="M217 492 l-137 -137 140 -140 140 -140 78 78 77 77 468 0 467 0 0 129 c0 122 -1 132 -32 200 l-31 72 -76 -3 -75 -3 -15 -75 -16 -75 -344 -3 -343 -2 -82 80 -82 79 -137 -137z m1153 -17 l0 -105 30 0 c29 0 30 -2 30 -45 l0 -45 -115 0 -115 0 0 45 c0 45 0 45 35 45 l35 0 0 105 0 105 50 0 50 0 0 -105z m-1012 -16 c3 -45 4 -47 41 -53 71 -11 117 -85 89 -143 -19 -40 -71 -63 -144 -63 -86 0 -120 14 -128 52 -11 54 -8 61 19 54 l25 -6 0 105 0 106 48 -3 47 -3 3 -46z m297 -41 c15 -23 15 -23 -32 -29 -46 -6 -46 -6 -10 -7 34 -2 38 -5 35 -24 -2 -18 -8 -22 -30 -20 -14 2 -29 -2 -33 -7 -4 -7 7 -11 29 -11 29 0 36 -4 36 -20 0 -18 -7 -20 -60 -20 l-60 0 0 73 c0 41 3 77 7 80 3 4 28 7 54 7 38 0 51 -5 64 -22z m65 -3 c12 -32 16 -31 33 2 l15 27 17 -34 17 -34 14 33 c12 28 16 31 35 21 14 -8 18 -17 14 -28 -4 -9 -16 -42 -27 -72 -19 -50 -22 -53 -34 -35 -41 62 -40 62 -55 22 -7 -20 -16 -37 -19 -37 -4 0 -19 32 -35 71 -23 59 -25 73 -14 80 22 14 29 11 39 -16z m284 4 c19 -15 26 -30 26 -55 0 -47 -14 -70 -50 -83 -82 -28 -147 73 -85 134 30 31 73 32 109 4z m86 -9 c0 -39 27 -41 32 -2 2 21 8 27 28 27 24 0 25 -2 28 -77 l3 -78 -31 0 c-25 0 -30 4 -30 25 0 16 -6 25 -15 25 -9 0 -15 -9 -15 -25 0 -20 -5 -25 -25 -25 -25 0 -25 1 -25 80 0 79 0 80 25 80 21 0 25 -5 25 -30z"/>
 <path d="M357 333 c-4 -3 -7 -19 -7 -35 0 -21 5 -28 20 -28 30 0 43 34 21 54 -19 18 -25 19 -34 9z"/>
 <path d="M926 371 c-11 -18 6 -42 28 -39 29 4 29 42 -1 46 -11 2 -24 -1 -27 -7z"/>
 <path d="M640 590 c0 -5 11 -10 25 -10 14 0 25 5 25 10 0 6 -11 10 -25 10 -14 0 -25 -4 -25 -10z"/>
 <path d="M640 550 c0 -5 11 -10 25 -10 14 0 25 5 25 10 0 6 -11 10 -25 10 -14 0 -25 -4 -25 -10z"/>
 <path d="M733 558 c2 -7 14 -13 27 -13 13 0 25 6 28 13 2 8 -7 12 -28 12 -21 0 -30 -4 -27 -12z"/>
 <path d="M830 555 c0 -9 9 -15 25 -15 16 0 25 6 25 15 0 9 -9 15 -25 15 -16 0 -25 -6 -25 -15z"/>
 <path d="M1100 554 c0 -11 8 -14 27 -12 39 4 42 28 4 28 -21 0 -31 -5 -31 -16z"/>
 </g>
<g id="layer108" fill="#fdfdfd" stroke="none">
 <path d="M0 375 l0 -375 775 0 775 0 0 375 0 375 -775 0 -775 0 0 -375z m445 205 l90 -90 325 0 326 0 13 68 c21 104 19 102 117 102 83 0 85 0 95 -27 6 -16 24 -54 40 -86 28 -56 29 -63 29 -197 l0 -140 -478 0 -477 0 -85 -85 c-47 -47 -88 -84 -92 -83 -4 2 -77 73 -163 158 l-156 154 158 158 c87 87 160 158 163 158 3 0 46 -40 95 -90z m105 14 c0 -19 14 -18 34 4 18 21 100 29 111 12 5 -8 11 -7 21 1 11 9 14 8 14 -5 0 -20 46 -22 53 -2 6 16 35 15 45 -1 4 -6 21 -13 37 -15 22 -2 31 -9 33 -25 5 -38 32 -28 32 11 0 19 5 38 10 41 6 4 10 -10 10 -35 0 -34 3 -41 18 -38 12 2 18 15 20 42 l3 39 35 -34 34 -33 0 30 c0 23 4 30 20 30 11 0 20 -6 20 -13 0 -6 15 -13 33 -15 28 -3 32 -6 32 -33 0 -29 -1 -30 -53 -30 -43 -1 -56 3 -75 23 l-22 24 -5 -24 c-6 -22 -10 -23 -103 -25 -85 -2 -97 0 -97 15 -1 16 -1 16 -11 0 -11 -19 -64 -25 -74 -8 -4 7 -12 7 -25 0 -33 -17 -95 -12 -115 10 -10 11 -22 20 -27 20 -4 0 -8 -9 -8 -20 0 -11 -4 -20 -10 -20 -5 0 -10 23 -10 51 0 31 4 48 10 44 6 -3 10 -13 10 -21z"/>
 <path d="M217 492 l-137 -137 137 -137 138 -137 81 79 81 80 467 0 466 0 0 125 c0 124 -1 127 -35 195 l-35 70 -69 0 c-78 0 -72 7 -92 -97 l-12 -63 -346 0 -346 0 -80 80 -80 80 -138 -138z m1153 -17 l0 -105 30 0 c29 0 30 -2 30 -45 l0 -45 -115 0 -115 0 0 45 c0 45 0 45 35 45 l35 0 0 105 0 105 50 0 50 0 0 -105z m-1010 -15 c0 -48 1 -50 29 -50 73 0 129 -82 102 -148 -18 -43 -65 -62 -151 -62 -103 0 -130 17 -130 82 0 36 1 37 25 28 l25 -10 0 105 0 105 50 0 50 0 0 -50z m299 -42 c8 -21 5 -24 -33 -29 -37 -5 -38 -6 -8 -7 27 -2 32 -6 32 -27 0 -21 -5 -25 -32 -27 l-33 -1 33 -4 c26 -4 32 -9 32 -29 0 -24 -2 -25 -57 -22 l-58 3 -3 83 -3 82 61 0 c54 0 62 -3 69 -22z m64 -4 l13 -25 12 25 c15 33 26 33 41 -1 l13 -28 14 28 c12 23 18 26 34 17 11 -6 20 -13 20 -15 0 -7 -50 -139 -55 -143 -2 -2 -13 15 -25 38 l-22 43 -18 -42 c-11 -22 -21 -41 -23 -41 -2 0 -17 34 -32 76 -23 63 -25 78 -14 85 21 13 27 11 42 -17z m291 -5 l26 -31 0 31 c0 26 4 31 25 31 21 0 25 -5 25 -30 0 -20 5 -30 15 -30 10 0 15 10 15 30 0 27 3 30 30 30 l30 0 0 -80 0 -80 -30 0 c-26 0 -30 4 -30 26 0 16 -5 24 -12 22 -7 -3 -13 -13 -13 -24 0 -13 -8 -20 -27 -22 -26 -3 -28 0 -28 30 l0 33 -13 -25 c-7 -14 -25 -31 -41 -38 -82 -40 -156 68 -91 133 36 37 86 34 119 -6z"/>
 <path d="M360 305 c0 -37 8 -43 28 -23 18 18 15 36 -8 48 -18 10 -20 8 -20 -25z"/>
 <path d="M932 358 c2 -15 10 -23 23 -23 30 0 27 39 -3 43 -20 3 -23 0 -20 -20z"/>
 <path d="M600 584 c-11 -12 -10 -18 3 -32 16 -15 17 -14 17 16 0 36 -2 38 -20 16z"/>
 <path d="M653 583 c9 -2 23 -2 30 0 6 3 -1 5 -18 5 -16 0 -22 -2 -12 -5z"/>
 <path d="M732 558 c7 -19 45 -21 51 -4 5 12 -1 16 -24 16 -20 0 -29 -4 -27 -12z"/>
 <path d="M830 555 c0 -9 9 -15 25 -15 16 0 25 6 25 15 0 9 -9 15 -25 15 -16 0 -25 -6 -25 -15z"/>
 <path d="M1100 555 c0 -9 9 -15 25 -15 16 0 25 6 25 15 0 9 -9 15 -25 15 -16 0 -25 -6 -25 -15z"/>
 <path d="M640 550 c0 -5 11 -10 25 -10 14 0 25 5 25 10 0 6 -11 10 -25 10 -14 0 -25 -4 -25 -10z"/>
 </g>

</svg>